<svg width="39" height="36" viewBox="0 0 39 36" fill="none" xmlns="http://www.w3.org/2000/svg">
<path d="M30.8209 12.45V9.675C30.8209 8.57104 30.3823 7.51229 29.6017 6.73167C28.8211 5.95105 27.7623 5.5125 26.6584 5.5125L22.4959 5.5125M22.4959 30.4875H26.6584C27.7623 30.4875 28.8211 30.049 29.6017 29.2683C30.3823 28.4877 30.8209 27.429 30.8209 26.325V23.55M5.84587 23.55L5.84587 26.325C5.84587 27.429 6.28442 28.4877 7.06504 29.2683C7.84566 30.049 8.90441 30.4875 10.0084 30.4875H14.1709M14.1709 5.5125L10.0084 5.5125C8.90441 5.5125 7.84566 5.95105 7.06504 6.73167C6.28442 7.51229 5.84587 8.57104 5.84587 9.675V12.45M4.45837 18H32.2084" stroke="#020202" stroke-width="2.25" stroke-linecap="round" stroke-linejoin="round"/>
</svg>
