<svg width="36" height="36" viewBox="0 0 36 36" fill="none" xmlns="http://www.w3.org/2000/svg">
<path d="M5.67163 16.89V21.3C5.67163 26.8434 5.67163 29.6158 7.39447 31.3372C9.11731 33.0586 11.8883 33.06 17.4316 33.06H18.9016C24.445 33.06 27.2174 33.06 28.9388 31.3372C30.6602 29.6143 30.6616 26.8434 30.6616 21.3V16.89" stroke="#020202" stroke-width="2.205"/>
<path d="M14.4917 3.66003L21.8417 3.66003L22.8001 13.24C22.8632 13.8865 22.7904 14.539 22.5863 15.1556C22.3822 15.7722 22.0513 16.3393 21.6149 16.8204C21.1785 17.3015 20.6463 17.686 20.0524 17.9491C19.4585 18.2122 18.8162 18.3481 18.1667 18.3481C17.5171 18.3481 16.8748 18.2122 16.2809 17.9491C15.6871 17.686 15.1548 17.3015 14.7184 16.8204C14.282 16.3393 13.9511 15.7722 13.747 15.1556C13.5429 14.539 13.4701 13.8865 13.5332 13.24L14.4917 3.66003Z" stroke="#020202" stroke-width="2.205"/>
<path d="M5.42177 8.58598C5.68343 7.27768 5.81426 6.62354 6.08033 6.09287C6.35756 5.5402 6.74792 5.05201 7.22605 4.65998C7.70418 4.26796 8.25941 3.98085 8.85569 3.81731C9.42899 3.66002 10.0964 3.66002 11.4311 3.66002H14.4917L13.4259 14.3102C13.3697 14.9197 13.1896 15.5113 12.8968 16.0488C12.604 16.5863 12.2045 17.0584 11.7229 17.4361C11.2413 17.8139 10.6876 18.0894 10.0959 18.2458C9.50408 18.4021 8.8866 18.4361 8.28125 18.3455C7.67589 18.255 7.09538 18.0418 6.57526 17.7191C6.05514 17.3964 5.60635 16.971 5.25637 16.4688C4.90639 15.9666 4.66258 15.3983 4.53987 14.7986C4.41716 14.199 4.41812 13.5806 4.54271 12.9813L5.42177 8.58598ZM30.9116 8.58598C30.6499 7.27768 30.5191 6.62354 30.253 6.09287C29.9758 5.5402 29.5854 5.05201 29.1073 4.65998C28.6292 4.26796 28.0739 3.98085 27.4776 3.81731C26.9043 3.66002 26.237 3.66002 24.9022 3.66002L21.8417 3.66002L22.9074 14.3102C22.9637 14.9197 23.1437 15.5113 23.4365 16.0488C23.7294 16.5863 24.1288 17.0584 24.6104 17.4361C25.092 17.8139 25.6457 18.0894 26.2375 18.2458C26.8293 18.4021 27.4467 18.4361 28.0521 18.3455C28.6574 18.255 29.238 18.0418 29.7581 17.7191C30.2782 17.3964 30.727 16.971 31.077 16.4688C31.4269 15.9666 31.6708 15.3983 31.7935 14.7986C31.9162 14.199 31.9152 13.5806 31.7906 12.9813L30.9116 8.58598Z" stroke="#020202" stroke-width="2.205"/>
<path d="M14.4916 32.325V27.915C14.4916 26.5406 14.4916 25.8541 14.7871 25.3425C14.9806 25.0074 15.259 24.729 15.5941 24.5355C16.1057 24.24 16.7922 24.24 18.1666 24.24C19.5411 24.24 20.2276 24.24 20.7391 24.5355C21.0743 24.729 21.3526 25.0074 21.5462 25.3425C21.8416 25.8541 21.8416 26.5406 21.8416 27.915V32.325" stroke="#020202" stroke-width="2.205" stroke-linecap="round"/>
</svg>
