<svg width="40" height="41" viewBox="0 0 40 41" fill="none" xmlns="http://www.w3.org/2000/svg">
<path fill-rule="evenodd" clip-rule="evenodd" d="M30.15 4.74833C29.23 4.23166 28.25 4.18166 27.215 4.30999C26.2317 4.43333 25.0333 4.74332 23.595 5.11832L20.23 5.99166C18.7917 6.36666 17.595 6.67666 16.68 7.04832C15.715 7.43832 14.8817 7.96166 14.3417 8.86999C13.7983 9.78332 13.745 10.76 13.88 11.78C14.0083 12.7417 14.33 13.9083 14.7133 15.2983L15.6183 18.5717C16.0017 19.9633 16.325 21.1283 16.71 22.0217C17.1183 22.9717 17.6633 23.78 18.59 24.3C19.51 24.815 20.49 24.8667 21.5267 24.7367C22.51 24.615 23.7083 24.3033 25.1467 23.9283L28.5117 23.055C29.95 22.6817 31.1467 22.37 32.0617 21.9983C33.0267 21.6083 33.86 21.085 34.4 20.1767C34.9433 19.2633 34.9967 18.2867 34.8617 17.2683C34.7333 16.3067 34.4117 15.1383 34.0283 13.7483L33.1233 10.475C32.74 9.08499 32.4167 7.91832 32.0317 7.02499C31.6233 6.07499 31.075 5.26666 30.15 4.74833ZM24.1433 7.55833C25.685 7.15833 26.7233 6.89166 27.5267 6.79166C28.295 6.69499 28.6633 6.77999 28.9317 6.92999C29.1933 7.07666 29.445 7.33166 29.7367 8.01332C30.045 8.72999 30.325 9.72832 30.7383 11.225L31.595 14.33C32.01 15.8267 32.2833 16.8267 32.385 17.5967C32.4817 18.3283 32.395 18.66 32.2517 18.8983C32.1067 19.1433 31.8433 19.3917 31.1267 19.6817C30.38 19.9833 29.3433 20.2567 27.8017 20.6567L24.6017 21.4883C23.06 21.8883 22.0217 22.155 21.2183 22.255C20.4483 22.3533 20.0817 22.2683 19.8133 22.1183C19.5517 21.9717 19.3 21.715 19.0083 21.035C18.7 20.3183 18.42 19.3183 18.0067 17.8217L17.15 14.7183C16.735 13.2183 16.4617 12.22 16.36 11.4517C16.2633 10.7183 16.35 10.3883 16.4933 10.1483C16.6383 9.90333 16.9017 9.65499 17.6183 9.36499C18.365 9.06332 19.4017 8.79166 20.9433 8.38999L24.1433 7.55833Z" fill="black"/>
<path fill-rule="evenodd" clip-rule="evenodd" d="M5.33332 8.37501C5.01756 8.29759 4.68407 8.34625 4.40359 8.51065C4.12311 8.67504 3.91772 8.94225 3.83098 9.25557C3.74425 9.5689 3.783 9.90369 3.93902 10.1889C4.09503 10.4741 4.35603 10.6874 4.66665 10.7833L7.50499 11.5717C8.21499 11.7683 8.74332 12.305 8.92332 12.9567L12.1767 24.7283C12.0511 24.7528 11.9261 24.7817 11.8017 24.815C8.50665 25.67 6.49332 28.985 7.39665 32.26C8.29665 35.5183 11.72 37.3967 15.0017 36.5433C17.875 35.7983 19.7733 33.1833 19.6133 30.3567L33.6467 26.71C33.8055 26.6687 33.9548 26.5966 34.0858 26.4977C34.2168 26.3987 34.327 26.275 34.4102 26.1335C34.4934 25.9919 34.5479 25.8354 34.5706 25.6728C34.5933 25.5102 34.5837 25.3447 34.5425 25.1858C34.5012 25.0269 34.4291 24.8777 34.3302 24.7467C34.2312 24.6157 34.1075 24.5054 33.9659 24.4223C33.8244 24.3391 33.6679 24.2846 33.5053 24.2619C33.3427 24.2392 33.1772 24.2487 33.0183 24.29L18.955 27.945C18.5342 27.1411 17.942 26.4393 17.2203 25.8893C16.4987 25.3392 15.665 24.9543 14.7783 24.7617L11.3333 12.29C11.1214 11.54 10.719 10.8576 10.1653 10.3091C9.61157 9.7606 8.92533 9.36475 8.17332 9.16001L5.33332 8.37501ZM12.4317 27.2333C14.4517 26.71 16.4783 27.8817 16.9983 29.765C17.515 31.6317 16.3817 33.6033 14.375 34.125C12.355 34.65 10.3283 33.4767 9.80832 31.5933C9.29165 29.7267 10.425 27.755 12.4317 27.2333Z" fill="black"/>
</svg>
