<svg width="40" height="40" viewBox="0 0 40 40" fill="none" xmlns="http://www.w3.org/2000/svg">
<g clip-path="url(#clip0_512_358)">
<path d="M32.44 20.6071C36.5393 20.6071 40 17.1914 40 13.0621C40 8.93285 36.5836 5.51642 32.44 5.51642C28.3107 5.51642 24.8943 8.93285 24.8943 13.0621C24.8943 17.2207 28.3107 20.6071 32.44 20.6071ZM12.0757 29.8757L29.41 29.8757C29.9886 29.8757 30.4936 29.4007 30.4936 28.7614C30.4936 28.1236 29.9886 27.6478 29.41 27.6478L12.3286 27.6478C11.4814 27.6478 10.9614 27.0536 10.8286 26.1478L10.605 24.5878L29.4393 24.5878C30.9843 24.5878 31.9793 23.9343 32.5436 22.6571C31.2664 22.6571 30.0629 22.405 28.9493 21.9143C28.7264 22.2114 28.4443 22.345 28.0279 22.345L10.2636 22.36L9.00143 13.7457L22.9036 13.7457C22.83 13.0621 22.8743 12.1707 22.9779 11.5028L8.67429 11.5028L8.40714 9.6157C8.24357 8.47285 7.84286 7.89285 6.32786 7.89285H1.09929C0.505 7.89285 0 8.41285 0 9.00713C0 9.6157 0.505 10.1357 1.09929 10.1357H6.11929L8.49643 26.445C8.80786 28.5543 9.92214 29.8757 12.0757 29.8757ZM32.4543 17.9636C31.935 17.9636 31.4743 17.6064 31.4743 17.0578V13.9678H28.6371C28.3973 13.9667 28.1676 13.8709 27.998 13.7013C27.8283 13.5317 27.7326 13.302 27.7314 13.0621C27.7314 12.5721 28.1321 12.1557 28.6371 12.1557H31.4743V9.08142C31.4743 8.51713 31.935 8.15999 32.455 8.15999C32.9743 8.15999 33.4193 8.51713 33.4193 9.08142V12.1557H36.2571C36.7621 12.1557 37.1786 12.5714 37.1786 13.0621C37.1786 13.5528 36.7621 13.9678 36.2571 13.9678H33.42V17.0578C33.42 17.6071 32.9736 17.9636 32.4543 17.9636ZM13.25 37.095C13.5668 37.0978 13.8811 37.0374 14.1743 36.9174C14.4676 36.7974 14.734 36.6202 14.958 36.3961C15.182 36.172 15.3592 35.9055 15.4791 35.6122C15.599 35.3189 15.6593 35.0047 15.6564 34.6878C15.6577 34.3715 15.5962 34.058 15.4757 33.7654C15.3551 33.4729 15.1778 33.2072 14.954 32.9835C14.7303 32.7598 14.4644 32.5827 14.1718 32.4623C13.8792 32.342 13.5657 32.2807 13.2493 32.2821C12.9326 32.2795 12.6185 32.3399 12.3253 32.4599C12.0322 32.5799 11.7659 32.7571 11.542 32.9811C11.3181 33.2051 11.141 33.4714 11.0211 33.7646C10.9011 34.0577 10.8408 34.3718 10.8436 34.6886C10.8398 35.0056 10.8995 35.3202 11.0191 35.6139C11.1388 35.9075 11.3159 36.1743 11.5401 36.3985C11.7643 36.6227 12.031 36.7998 12.3247 36.9194C12.6183 37.039 12.9329 37.0987 13.25 37.095ZM27.1529 37.095C27.4696 37.0977 27.7838 37.0372 28.077 36.9172C28.3701 36.7971 28.6365 36.6199 28.8604 36.3958C29.0844 36.1717 29.2614 35.9053 29.3813 35.6121C29.5012 35.3188 29.5614 35.0046 29.5586 34.6878C29.5598 34.3716 29.4984 34.0582 29.3779 33.7658C29.2575 33.4733 29.0803 33.2076 28.8567 32.984C28.6331 32.7604 28.3674 32.5832 28.0749 32.4628C27.7825 32.3423 27.4691 32.2809 27.1529 32.2821C25.8007 32.2821 24.7171 33.3514 24.7171 34.6886C24.7171 36.04 25.8007 37.095 27.1529 37.095Z" fill="black"/>
</g>
<defs>
<clipPath id="clip0_512_358">
<rect width="40" height="40" fill="white"/>
</clipPath>
</defs>
</svg>
