<svg width="40" height="40" viewBox="0 0 40 40" fill="none" xmlns="http://www.w3.org/2000/svg">
<path d="M36.8525 10.78L24.3525 3.905C24.1679 3.80346 23.9607 3.75021 23.75 3.75021C23.5393 3.75021 23.3321 3.80346 23.1475 3.905L10.6475 10.78C10.4515 10.8879 10.2881 11.0464 10.1743 11.239C10.0604 11.4316 10.0004 11.6513 10.0004 11.875C10.0004 12.0987 10.0604 12.3184 10.1743 12.511C10.2881 12.7036 10.4515 12.8621 10.6475 12.97L22.5 19.4888V32.8875L18.705 30.8L17.5 32.9888L23.1475 36.095C23.3321 36.1965 23.5393 36.2498 23.75 36.2498C23.9607 36.2498 24.1679 36.1965 24.3525 36.095L36.8525 29.22C37.0486 29.1121 37.2121 28.9536 37.326 28.761C37.4399 28.5684 37.5 28.3488 37.5 28.125V11.875C37.5 11.6512 37.4399 11.4316 37.326 11.239C37.2121 11.0464 37.0486 10.8879 36.8525 10.78ZM23.75 6.4275L33.6563 11.875L23.75 17.3225L13.8438 11.875L23.75 6.4275ZM35 27.3863L25 32.8863V19.4875L35 13.9875V27.3863Z" fill="black"/>
<path d="M12.5 20H2.5V17.5H12.5V20ZM15 30H5L5 27.5H15V30ZM17.5 25H7.5L7.5 22.5H17.5V25Z" fill="black"/>
</svg>
