<svg width="40" height="41" viewBox="0 0 40 41" fill="none" xmlns="http://www.w3.org/2000/svg">
<path d="M18 18.5C17.7348 18.5 17.4804 18.6054 17.2929 18.7929C17.1054 18.9804 17 19.2348 17 19.5V25.5C17 25.6702 17.0434 25.8375 17.1262 25.9862C17.2089 26.1349 17.3282 26.26 17.4728 26.3497C17.6173 26.4394 17.7824 26.4907 17.9524 26.4988C18.1223 26.5069 18.2915 26.4715 18.444 26.396C18.5947 25.884 18.78 25.3893 19 24.912V19.5C19 19.2348 18.8946 18.9804 18.7071 18.7929C18.5196 18.6054 18.2652 18.5 18 18.5ZM8 30.5H18.044C18.1067 31.188 18.23 31.8547 18.414 32.5H8C6.93913 32.5 5.92172 32.0786 5.17157 31.3284C4.42143 30.5783 4 29.5609 4 28.5L4 8.5C4 7.43913 4.42143 6.42172 5.17157 5.67157C5.92172 4.92143 6.93913 4.5 8 4.5L28 4.5C29.0609 4.5 30.0783 4.92143 30.8284 5.67157C31.5786 6.42172 32 7.43913 32 8.5V18.914C31.3462 18.7292 30.6767 18.6053 30 18.544V8.5C30 7.96957 29.7893 7.46086 29.4142 7.08579C29.0391 6.71071 28.5304 6.5 28 6.5L8 6.5C7.46957 6.5 6.96086 6.71071 6.58579 7.08579C6.21071 7.46086 6 7.96957 6 8.5L6 28.5C6 29.0304 6.21071 29.5391 6.58579 29.9142C6.96086 30.2893 7.46957 30.5 8 30.5ZM26 11.5V18.914C25.3013 19.1127 24.6347 19.3747 24 19.7V11.5C24 11.2348 24.1054 10.9804 24.2929 10.7929C24.4804 10.6054 24.7348 10.5 25 10.5C25.2652 10.5 25.5196 10.6054 25.7071 10.7929C25.8946 10.9804 26 11.2348 26 11.5ZM10 15.5C10 15.2348 10.1054 14.9804 10.2929 14.7929C10.4804 14.6054 10.7348 14.5 11 14.5C11.2652 14.5 11.5196 14.6054 11.7071 14.7929C11.8946 14.9804 12 15.2348 12 15.5V25.5C12 25.7652 11.8946 26.0196 11.7071 26.2071C11.5196 26.3946 11.2652 26.5 11 26.5C10.7348 26.5 10.4804 26.3946 10.2929 26.2071C10.1054 26.0196 10 25.7652 10 25.5V15.5ZM38 29.5C38 31.8869 37.0518 34.1761 35.364 35.864C33.6761 37.5518 31.3869 38.5 29 38.5C26.6131 38.5 24.3239 37.5518 22.636 35.864C20.9482 34.1761 20 31.8869 20 29.5C20 27.1131 20.9482 24.8239 22.636 23.136C24.3239 21.4482 26.6131 20.5 29 20.5C31.3869 20.5 33.6761 21.4482 35.364 23.136C37.0518 24.8239 38 27.1131 38 29.5ZM32.292 25.792L27 31.086L25.708 29.792C25.5202 29.6042 25.2656 29.4987 25 29.4987C24.7344 29.4987 24.4798 29.6042 24.292 29.792C24.1042 29.9798 23.9987 30.2344 23.9987 30.5C23.9987 30.7656 24.1042 31.0202 24.292 31.208L26.292 33.208C26.3849 33.3011 26.4952 33.375 26.6167 33.4254C26.7382 33.4758 26.8685 33.5018 27 33.5018C27.1315 33.5018 27.2618 33.4758 27.3833 33.4254C27.5048 33.375 27.6151 33.3011 27.708 33.208L33.708 27.208C33.8958 27.0202 34.0013 26.7656 34.0013 26.5C34.0013 26.2344 33.8958 25.9798 33.708 25.792C33.5202 25.6042 33.2656 25.4987 33 25.4987C32.7344 25.4987 32.4798 25.6042 32.292 25.792Z" fill="black"/>
</svg>
