<svg width="39" height="38" viewBox="0 0 39 38" fill="none" xmlns="http://www.w3.org/2000/svg">
<path fill-rule="evenodd" clip-rule="evenodd" d="M4.7902 12.5188C3.98334 13.9882 3.98334 15.7648 3.98334 19.3151L3.98334 21.6767C3.98334 27.7282 3.98334 30.7555 5.80189 32.6361C7.62044 34.5167 10.5453 34.5167 16.3967 34.5167H22.6033C28.4547 34.5167 31.3811 34.5167 33.1981 32.6361C35.0151 30.7555 35.0167 27.7297 35.0167 21.6767V19.3166C35.0167 15.7648 35.0167 13.9897 34.2098 12.5188C33.406 11.0462 31.9335 10.1338 28.99 8.30598L25.8867 6.38036C22.7756 4.44854 21.2193 3.4834 19.5 3.4834C17.7808 3.4834 16.226 4.44854 13.1133 6.38036L10.01 8.30598C7.0665 10.1338 5.59552 11.0462 4.7902 12.5188ZM18.3363 28.3101C18.3363 28.6187 18.4589 28.9147 18.6771 29.133C18.8954 29.3512 19.1914 29.4738 19.5 29.4738C19.8087 29.4738 20.1047 29.3512 20.3229 29.133C20.5411 28.9147 20.6638 28.6187 20.6638 28.3101V23.6551C20.6638 23.3464 20.5411 23.0504 20.3229 22.8322C20.1047 22.6139 19.8087 22.4913 19.5 22.4913C19.1914 22.4913 18.8954 22.6139 18.6771 22.8322C18.4589 23.0504 18.3363 23.3464 18.3363 23.6551V28.3101Z" fill="#407BFF"/>
</svg>
